<?xml version="1.0" encoding="iso-8859-1"?>
<!-- Generator: Adobe Illustrator 16.0.0, SVG Export Plug-In . SVG Version: 6.00 Build 0)  -->
<!DOCTYPE svg PUBLIC "-//W3C//DTD SVG 1.1//EN" "http://www.w3.org/Graphics/SVG/1.1/DTD/svg11.dtd">
<svg version="1.1" id="Capa_1" xmlns="http://www.w3.org/2000/svg" xmlns:xlink="http://www.w3.org/1999/xlink" x="0px" y="0px"
	 width="208px" height="98px" viewBox="0 0 208 98" style="enable-background:new 0 0 208 98;" xml:space="preserve">
<style type="text/css">
<![CDATA[
	.st0{fill:#FFB105;}
	.st1{fill:#FFFFFF;}
	.st2{fill:#017A00;}
]]>
</style>
<ellipse class="st0" cx="52.2" cy="42.8" rx="47.7" ry="42"/>
<path class="st2" d="M45,83.8V46H17.5c0,0,0.8,5.1,3.3,8.8c2.5,3.7,5.2,5.8,5.2,5.8v18.5L45,83.8z"/>
<path class="st2" d="M94.9,24H79.8c0,0-3.1-3.5-9.4-6.8C64.1,13.9,59,13.4,59,13.4V35h40v-7.2L94.9,24z"/>
<path class="st2" d="M47,36H18.6c0,0,0.8-6.3,6.1-11.6c4.6-4.6,9.6-7.1,13-8.5c3.4-1.4,9.3-2.4,9.3-2.4V36z"/>
<path class="st2" d="M59,45h28.4c0,0-0.8,7.8-6.2,14.2c-4.7,5.5-9.5,8.6-13,10.3c-3.5,1.6-9.2,3-9.2,3V45z"/>
<path class="st1" d="M59,46h27.3c0,0-1,6.9-6.2,12.8c-4.5,5.1-8.6,7.7-11.9,9.2c-3.3,1.5-9.2,3.1-9.2,3.1V46z"/>
<path class="st1" d="M46,36H19.8c0,0,0.8-6,5.8-11.1c4.3-4.4,8.8-6.8,12-8.1c3.2-1.3,8.5-2.3,8.5-2.3V36z"/>
<path class="st1" d="M97.7,24.9L79.5,25c0,0-3.1-3.1-7.8-5.9C65.4,15.3,59,14.5,59,14.5V36h42v-7.1L97.7,24.9z"/>
<path class="st1" d="M46,87.1V46H18.6c0,0,0.7,5.3,3.4,9.2c2.8,4.1,5,4.9,5,4.9v22L46,87.1z"/>
<polygon class="st2" points="58,1.1 58,84.4 59,84.3 59,1.2 "/>
<polygon class="st2" points="46,13.7 46,85.4 47,85.3 47,13.6 "/>
<polygon class="st2" points="26,62 26,79.2 27,79.2 27,62 "/>
<polygon class="st2" points="18.6,37 99.4,37 99.3,36 18.6,36 "/>
<polygon class="st2" points="0,91 125.5,91 125.3,88 0,88 "/>
<polygon class="st0" points="15.8,98.3 208.3,98.3 208.1,95.2 15.8,95.2 "/>
<polygon class="st2" points="4.7,46 87.3,46 87.4,45 4.6,45 "/>
<path class="st2" d="M97.4,63.9l-3.3-0.7c0,0-1.2,7.6,2.5,13c3.8,5.4,7.5,7.6,8.9,8.7c1.3,1,5.5,3.1,5.5,3.1h14.3
	c0,0-9.9-0.3-18.3-6.1C98.7,76.1,97,71.9,97.4,63.9z"/>
<path class="st0" d="M187.2,79.6l-2.5-0.4c0,0-0.9,4.9,1.9,8.4c2.9,3.5,5.7,4.9,6.7,5.6c1,0.7,4.1,2,4.1,2h10.9c0,0-7.5-0.3-13.9-4
	C188.1,87.5,186.8,84.8,187.2,79.6z"/>
<g>
	<path class="st2" d="M107.4,52.2c-0.1,0-0.2,0-0.3,0c-0.2,0-0.3,0-0.4-0.1c-0.1-0.1-0.1-0.1-0.2-0.2c-0.3-0.7-0.7-1.2-1.2-1.6
		c-0.5-0.3-1.1-0.5-1.9-0.5c-0.3,0-0.6,0-0.9,0.1c-0.3,0.1-0.5,0.2-0.7,0.4c-0.2,0.2-0.4,0.3-0.5,0.6c-0.1,0.2-0.2,0.5-0.2,0.8
		c0,0.6,0.3,1.1,0.8,1.4s1.3,0.8,2.3,1.1c1.2,0.5,2.2,1,2.8,1.6c0.6,0.6,0.9,1.3,0.9,2.1c0,0.5-0.1,1-0.2,1.4
		c-0.2,0.4-0.4,0.8-0.8,1.2c-0.3,0.3-0.8,0.6-1.3,0.8c-0.5,0.2-1.2,0.3-2,0.3c-0.8,0-1.5-0.1-2.2-0.2s-1.2-0.4-1.7-0.6
		c0-0.5-0.1-1-0.2-1.5s-0.2-1-0.3-1.5c0.1,0,0.2-0.1,0.3-0.1c0.2,0,0.3,0,0.4,0.1c0.1,0.1,0.2,0.2,0.2,0.3c0.3,0.9,0.7,1.6,1.3,2
		c0.5,0.4,1.2,0.6,2.1,0.6c0.4,0,0.8-0.1,1.1-0.2c0.3-0.1,0.6-0.3,0.8-0.5c0.2-0.2,0.4-0.4,0.5-0.7s0.2-0.5,0.2-0.8
		c0-0.6-0.2-1.2-0.7-1.5c-0.5-0.4-1.1-0.7-2-1c-0.6-0.2-1.1-0.4-1.5-0.6s-0.8-0.5-1.2-0.8c-0.3-0.3-0.6-0.6-0.7-1
		c-0.2-0.4-0.3-0.8-0.3-1.4c0-0.5,0.1-0.9,0.3-1.3s0.4-0.8,0.8-1.1c0.3-0.3,0.7-0.5,1.2-0.7c0.5-0.2,1-0.3,1.6-0.3
		c0.6,0,1.2,0.1,1.7,0.2c0.6,0.1,1.2,0.3,1.9,0.6c0,0.4,0.1,0.8,0.1,1.2C107.2,51.4,107.3,51.8,107.4,52.2z"/>
	<path class="st2" d="M116.6,59.7c0.1-0.1,0.2-0.1,0.3-0.1c0.1,0,0.3,0.1,0.4,0.3c-0.2,0.2-0.4,0.4-0.6,0.7s-0.5,0.4-0.8,0.6
		s-0.7,0.3-1,0.4s-0.8,0.2-1.3,0.2c-0.5,0-1-0.1-1.5-0.2s-0.9-0.4-1.2-0.8s-0.6-0.8-0.9-1.3c-0.2-0.5-0.3-1.1-0.3-1.8
		c0-0.6,0.1-1.2,0.4-1.8c0.3-0.5,0.6-1,1-1.4s0.8-0.7,1.3-0.9c0.5-0.2,1-0.3,1.4-0.3c1.2,0,2.1,0.3,2.6,1s0.8,1.6,0.8,2.6
		c0,0.1,0,0.1-0.1,0.1l-5.6,0.2c0,0.5,0.1,0.9,0.2,1.3s0.3,0.8,0.6,1.1s0.6,0.5,0.9,0.7c0.4,0.2,0.8,0.3,1.2,0.3
		c0.4,0,0.8-0.1,1.2-0.3C116,60.2,116.4,60,116.6,59.7z M113.5,54c-0.6,0-1.1,0.2-1.5,0.7c-0.4,0.5-0.5,1.1-0.5,1.9l3.7-0.2
		c0.2,0,0.3-0.1,0.3-0.2c0-0.2,0-0.5-0.1-0.8c-0.1-0.3-0.2-0.5-0.3-0.7s-0.4-0.4-0.6-0.5C114.1,54,113.8,54,113.5,54z"/>
	<path class="st2" d="M124.2,53.3c0.4,0,0.7,0.1,0.8,0.3c0.2,0.2,0.3,0.4,0.3,0.6c0,0.1,0,0.1,0,0.2c0,0.1-0.1,0.1-0.2,0.2
		c-0.1,0.1-0.2,0.1-0.4,0.2c-0.2,0.1-0.4,0.2-0.7,0.3c-0.1-0.1-0.3-0.3-0.4-0.4c-0.2-0.1-0.3-0.1-0.5-0.1c-0.2,0-0.4,0.1-0.6,0.2
		c-0.2,0.1-0.3,0.3-0.5,0.5c-0.1,0.2-0.2,0.4-0.3,0.7c-0.1,0.3-0.1,0.5-0.1,0.8v3.2c0,0.3,0.1,0.5,0.4,0.6c0.3,0.1,0.7,0.2,1.3,0.3
		c0.1,0,0.2,0.1,0.2,0.2c0,0.1,0,0.2,0,0.3c-0.1,0-0.3,0-0.5,0s-0.4,0-0.7,0c-0.2,0-0.5,0-0.7,0c-0.2,0-0.5,0-0.7,0
		c-0.4,0-0.7,0-1.1,0c-0.4,0-0.7,0-1.1,0.1c0-0.1,0-0.2,0-0.3c0-0.1,0.1-0.2,0.2-0.2c0.3-0.1,0.6-0.1,0.8-0.2
		c0.2-0.1,0.3-0.2,0.3-0.4v-4.8c0-0.3,0-0.5,0-0.7c0-0.2-0.1-0.3-0.2-0.4c-0.1-0.1-0.2-0.2-0.3-0.2c-0.1-0.1-0.3-0.1-0.6-0.1
		c-0.2,0-0.3-0.1-0.3-0.2c0-0.1,0-0.2,0-0.3c0.2,0,0.4,0,0.7,0c0.3,0,0.6,0,0.8-0.1c0.3,0,0.5-0.1,0.8-0.2c0.2-0.1,0.4-0.1,0.5-0.1
		c0.2,0,0.3,0.1,0.3,0.3v1.3c0.4-0.4,0.8-0.8,1.3-1.1C123.2,53.4,123.7,53.3,124.2,53.3z"/>
	<path class="st2" d="M130.5,59.4c0.6-1.5,1.1-2.6,1.4-3.4c0.3-0.8,0.5-1.3,0.5-1.5c0-0.1,0-0.2-0.1-0.3c-0.1-0.1-0.3-0.1-0.6-0.2
		c-0.2,0-0.3-0.1-0.3-0.2c0,0,0-0.1,0-0.1c0,0,0-0.1,0-0.1c0.5,0,1,0.1,1.6,0.1c0.3,0,0.6,0,0.8,0c0.2,0,0.4,0,0.7,0
		c0,0.1,0.1,0.2,0.1,0.2c0,0.1,0,0.1-0.1,0.2s-0.1,0.1-0.2,0.1c-0.2,0.1-0.5,0.3-0.7,0.4c-0.2,0.1-0.4,0.3-0.5,0.5l-2.8,6.7
		c-0.1,0-0.2,0-0.3,0c-0.1,0-0.2-0.1-0.3-0.2s-0.2-0.3-0.3-0.6l-2.7-6c-0.1-0.2-0.1-0.3-0.2-0.4c-0.1-0.1-0.1-0.2-0.2-0.3
		c-0.1-0.1-0.2-0.1-0.3-0.1s-0.3-0.1-0.4-0.1c-0.2,0-0.3-0.1-0.3-0.3c0-0.1,0-0.1,0.1-0.2c0.3,0,0.6,0,0.9,0s0.6,0,1,0
		c0.4,0,0.8,0,1.1,0c0.3,0,0.6,0,1,0c0,0.1,0.1,0.2,0.1,0.2c0,0.1-0.1,0.2-0.3,0.2c-0.3,0-0.5,0.1-0.6,0.2c-0.1,0.1-0.1,0.1-0.1,0.2
		c0,0.1,0,0.2,0.1,0.5c0.1,0.2,0.2,0.6,0.4,0.9L130.5,59.4z"/>
	<path class="st2" d="M137.3,61.4c-0.2,0-0.4,0-0.7,0c-0.2,0-0.4,0-0.6,0c-0.2,0-0.4,0-0.5,0c-0.1,0-0.2,0-0.3,0c0,0,0-0.1,0-0.1
		c0-0.1,0-0.1,0-0.2c0-0.1,0.1-0.2,0.2-0.2c0.3-0.1,0.6-0.1,0.8-0.2c0.2-0.1,0.3-0.2,0.3-0.4v-5.1c0-0.4-0.1-0.6-0.2-0.8
		c-0.1-0.2-0.4-0.3-0.9-0.3c-0.2,0-0.3-0.1-0.3-0.3c0-0.1,0-0.1,0-0.2c0.2,0,0.4,0,0.7,0c0.3,0,0.6,0,0.8-0.1c0.3,0,0.6-0.1,0.8-0.2
		s0.4-0.1,0.5-0.1c0.2,0,0.3,0.1,0.3,0.3c0,0.2,0,0.4-0.1,0.6c0,0.2-0.1,0.6-0.1,1v5.2c0,0.2,0.1,0.3,0.3,0.4
		c0.2,0.1,0.5,0.2,0.8,0.2c0.1,0,0.2,0.1,0.2,0.2c0,0,0,0.1,0,0.2c0,0.1,0,0.1,0,0.1c0,0-0.1,0-0.3,0c-0.1,0-0.3,0-0.5,0
		c-0.2,0-0.4,0-0.6,0C137.8,61.4,137.6,61.4,137.3,61.4z M136.2,50.1c0-0.3,0.1-0.6,0.3-0.8c0.2-0.2,0.5-0.3,0.8-0.3
		c0.3,0,0.6,0.1,0.8,0.3c0.2,0.2,0.3,0.5,0.3,0.8c0,0.3-0.1,0.6-0.3,0.8c-0.2,0.2-0.5,0.3-0.8,0.3c-0.3,0-0.6-0.1-0.8-0.3
		C136.3,50.7,136.2,50.5,136.2,50.1z"/>
	<path class="st2" d="M148.2,57h-4.3l-1.2,3c-0.1,0.1-0.1,0.3-0.1,0.4c0,0.3,0.4,0.5,1.2,0.6c0.1,0,0.2,0,0.2,0.1c0,0.1,0,0.1,0,0.2
		c0,0.1,0,0.2,0,0.3c-0.3,0-0.7,0-1.1-0.1c-0.4,0-0.8,0-1.1,0c-0.3,0-0.5,0-0.8,0c-0.3,0-0.6,0-0.9,0.1c0-0.1,0-0.2,0-0.3
		c0-0.1,0-0.2,0-0.2s0.1-0.1,0.2-0.1c0.4-0.1,0.7-0.1,0.9-0.2c0.2-0.1,0.3-0.2,0.4-0.4l4.7-10.9c0.1-0.2,0.2-0.3,0.4-0.3
		c0.1,0,0.1,0,0.2,0l4.7,11.2c0.1,0.2,0.3,0.3,0.5,0.4c0.3,0.1,0.5,0.2,0.8,0.2c0.1,0,0.1,0.1,0.2,0.1c0,0,0.1,0.1,0.1,0.2
		c0,0.1,0,0.2,0,0.3c-0.4,0-0.8,0-1.2-0.1c-0.4,0-0.8,0-1.1,0c-0.4,0-0.8,0-1.2,0c-0.5,0-0.9,0-1.3,0.1c0-0.1,0-0.2,0-0.3
		c0-0.1,0-0.2,0.1-0.2s0.1-0.1,0.1-0.1c0.3-0.1,0.6-0.1,0.8-0.2c0.2-0.1,0.3-0.2,0.3-0.4c0-0.1,0-0.2-0.1-0.3L148.2,57z M147.9,56.2
		l-1.8-4.6l-1.9,4.6H147.9z"/>
	<path class="st2" d="M159.2,55.6c-0.1,0-0.2,0-0.2-0.1c0,0-0.1-0.1-0.1-0.1c-0.1-0.5-0.3-0.9-0.6-1.1c-0.3-0.2-0.7-0.3-1.2-0.3
		c-0.4,0-0.7,0.1-1,0.3s-0.4,0.5-0.4,0.9c0,0.3,0.1,0.6,0.4,0.8s0.7,0.4,1.4,0.6c0.4,0.1,0.7,0.2,1,0.4c0.3,0.1,0.6,0.3,0.8,0.5
		c0.2,0.2,0.4,0.4,0.5,0.7s0.2,0.6,0.2,1c0,0.3-0.1,0.6-0.2,0.9s-0.3,0.6-0.6,0.8c-0.3,0.2-0.6,0.4-1,0.5c-0.4,0.1-0.8,0.2-1.4,0.2
		c-0.4,0-0.9,0-1.4-0.1s-1-0.3-1.4-0.5c0-0.3,0-0.7-0.1-1c0-0.4,0-0.7,0-1.1h0.2c0.1,0,0.2,0,0.3,0.1s0.1,0.1,0.2,0.2
		c0.1,0.5,0.3,0.9,0.6,1.3c0.4,0.3,0.9,0.5,1.5,0.5c0.5,0,0.9-0.1,1.2-0.3c0.3-0.2,0.4-0.5,0.4-0.9c0-0.4-0.2-0.7-0.5-0.9
		c-0.3-0.2-0.8-0.4-1.4-0.6c-0.8-0.2-1.4-0.5-1.8-0.9c-0.4-0.4-0.7-0.9-0.7-1.6c0-0.3,0.1-0.6,0.2-0.9c0.1-0.3,0.3-0.5,0.5-0.8
		s0.5-0.4,0.9-0.5c0.3-0.1,0.7-0.2,1.1-0.2c0.5,0,1,0.1,1.5,0.2c0.5,0.1,0.8,0.3,1.1,0.4c0,0.1,0,0.2,0,0.4c0,0.1,0,0.3,0,0.5
		s0,0.3,0,0.5c0,0.2,0,0.3,0,0.4L159.2,55.6z"/>
	<path class="st2" d="M168.5,59.7c0.1-0.1,0.2-0.1,0.3-0.1c0.1,0,0.3,0.1,0.4,0.3c-0.2,0.2-0.4,0.4-0.6,0.7
		c-0.2,0.2-0.5,0.4-0.8,0.6c-0.3,0.2-0.7,0.3-1,0.4s-0.8,0.2-1.3,0.2c-0.5,0-1-0.1-1.5-0.2c-0.5-0.2-0.9-0.4-1.2-0.8
		c-0.4-0.3-0.6-0.8-0.9-1.3s-0.3-1.1-0.3-1.8c0-0.6,0.1-1.2,0.4-1.8c0.3-0.5,0.6-1,1-1.4c0.4-0.4,0.8-0.7,1.3-0.9s1-0.3,1.4-0.3
		c1.2,0,2.1,0.3,2.6,1s0.8,1.6,0.8,2.6c0,0.1,0,0.1-0.1,0.1l-5.6,0.2c0,0.5,0.1,0.9,0.2,1.3c0.1,0.4,0.3,0.8,0.6,1.1
		c0.3,0.3,0.6,0.5,0.9,0.7c0.4,0.2,0.8,0.3,1.2,0.3c0.4,0,0.8-0.1,1.2-0.3S168.2,60,168.5,59.7z M165.3,54c-0.6,0-1.1,0.2-1.5,0.7
		s-0.5,1.1-0.5,1.9l3.7-0.2c0.2,0,0.3-0.1,0.3-0.2c0-0.2,0-0.5-0.1-0.8c-0.1-0.3-0.2-0.5-0.3-0.7c-0.2-0.2-0.4-0.4-0.6-0.5
		S165.6,54,165.3,54z"/>
	<path class="st2" d="M170.5,57.5c0-0.6,0.1-1.1,0.3-1.6c0.2-0.5,0.5-1,0.9-1.3s0.8-0.7,1.4-0.9c0.5-0.2,1.1-0.3,1.7-0.3
		c0.6,0,1.2,0.1,1.8,0.3s1,0.5,1.4,0.9c0.4,0.4,0.7,0.8,0.9,1.3s0.3,1.1,0.3,1.7c0,0.6-0.1,1.1-0.3,1.6c-0.2,0.5-0.5,0.9-0.9,1.3
		s-0.8,0.7-1.4,0.9c-0.5,0.2-1.1,0.3-1.7,0.3c-0.6,0-1.2-0.1-1.7-0.3c-0.5-0.2-1-0.5-1.4-0.9s-0.7-0.8-0.9-1.3
		C170.6,58.7,170.5,58.1,170.5,57.5z M172.3,56.8c0,0.5,0.1,0.9,0.2,1.4c0.1,0.5,0.3,0.9,0.5,1.3s0.5,0.7,0.8,1
		c0.3,0.3,0.7,0.4,1.2,0.4c0.7,0,1.3-0.2,1.7-0.8c0.4-0.5,0.6-1.1,0.6-1.9c0-0.5,0-0.9-0.1-1.5s-0.3-1-0.5-1.4
		c-0.2-0.4-0.5-0.8-0.8-1c-0.3-0.3-0.8-0.4-1.3-0.4c-0.7,0-1.2,0.2-1.7,0.7C172.5,55.1,172.3,55.8,172.3,56.8z"/>
</g>
<g>
	<path class="st2" d="M113.9,68.8c-0.1,0-0.1,0-0.2,0c-0.1,0-0.2,0-0.2-0.1c0,0-0.1-0.1-0.1-0.1c-0.2-0.4-0.4-0.7-0.7-0.9
		c-0.3-0.2-0.7-0.3-1.2-0.3c-0.2,0-0.4,0-0.5,0.1c-0.2,0-0.3,0.1-0.4,0.2c-0.1,0.1-0.2,0.2-0.3,0.3s-0.1,0.3-0.1,0.5
		c0,0.4,0.2,0.6,0.5,0.9c0.3,0.2,0.8,0.5,1.4,0.7c0.8,0.3,1.3,0.6,1.7,1c0.4,0.4,0.5,0.8,0.5,1.3c0,0.3,0,0.6-0.1,0.9
		c-0.1,0.3-0.3,0.5-0.5,0.7s-0.5,0.4-0.8,0.5c-0.3,0.1-0.7,0.2-1.2,0.2c-0.5,0-0.9,0-1.3-0.1s-0.7-0.2-1-0.4c0-0.3-0.1-0.6-0.1-0.9
		c0-0.3-0.1-0.6-0.2-0.9c0.1,0,0.1,0,0.2,0c0.1,0,0.2,0,0.2,0.1c0.1,0,0.1,0.1,0.1,0.2c0.2,0.5,0.4,0.9,0.8,1.2
		c0.3,0.3,0.7,0.4,1.3,0.4c0.3,0,0.5,0,0.7-0.1c0.2-0.1,0.3-0.2,0.5-0.3c0.1-0.1,0.2-0.3,0.3-0.4c0.1-0.2,0.1-0.3,0.1-0.5
		c0-0.4-0.1-0.7-0.4-0.9c-0.3-0.2-0.7-0.4-1.2-0.6c-0.3-0.1-0.6-0.2-0.9-0.4c-0.3-0.1-0.5-0.3-0.7-0.5c-0.2-0.2-0.3-0.4-0.5-0.6
		c-0.1-0.2-0.2-0.5-0.2-0.8c0-0.3,0.1-0.5,0.2-0.8c0.1-0.2,0.3-0.5,0.5-0.6c0.2-0.2,0.4-0.3,0.7-0.4c0.3-0.1,0.6-0.2,1-0.2
		c0.4,0,0.7,0,1.1,0.1c0.3,0.1,0.7,0.2,1.1,0.3c0,0.2,0,0.5,0.1,0.7S113.9,68.6,113.9,68.8z"/>
	<path class="st2" d="M115.4,73.8c0-0.2,0.1-0.4,0.2-0.5c0.1-0.1,0.3-0.2,0.5-0.2c0.2,0,0.4,0.1,0.5,0.2c0.1,0.1,0.2,0.3,0.2,0.5
		c0,0.2-0.1,0.4-0.2,0.5c-0.1,0.1-0.3,0.2-0.5,0.2c-0.2,0-0.4-0.1-0.5-0.2C115.5,74.2,115.4,74,115.4,73.8z"/>
	<path class="st2" d="M122.5,71.7h-2.6l-0.8,1.8c0,0.1-0.1,0.2-0.1,0.2c0,0.2,0.2,0.3,0.7,0.3c0.1,0,0.1,0,0.1,0.1c0,0,0,0.1,0,0.1
		c0,0,0,0.1,0,0.2c-0.2,0-0.4,0-0.7,0c-0.2,0-0.5,0-0.7,0c-0.2,0-0.3,0-0.5,0s-0.3,0-0.5,0c0-0.1,0-0.1,0-0.2c0-0.1,0-0.1,0-0.1
		c0,0,0.1-0.1,0.1-0.1c0.2,0,0.4-0.1,0.5-0.1s0.2-0.1,0.3-0.3l2.8-6.6c0.1-0.1,0.1-0.2,0.2-0.2c0,0,0.1,0,0.1,0l2.8,6.8
		c0,0.1,0.2,0.2,0.3,0.2c0.2,0.1,0.3,0.1,0.5,0.1c0,0,0.1,0,0.1,0.1c0,0,0,0.1,0,0.1c0,0,0,0.1,0,0.2c-0.3,0-0.5,0-0.7,0
		c-0.2,0-0.5,0-0.7,0c-0.2,0-0.5,0-0.8,0s-0.5,0-0.8,0c0-0.1,0-0.1,0-0.2c0-0.1,0-0.1,0-0.1c0,0,0.1,0,0.1,0c0.2,0,0.4-0.1,0.5-0.1
		s0.2-0.1,0.2-0.2c0,0,0-0.1,0-0.2L122.5,71.7z M122.3,71.3l-1.1-2.8l-1.1,2.8H122.3z"/>
	<path class="st2" d="M126,73.8c0-0.2,0.1-0.4,0.2-0.5c0.1-0.1,0.3-0.2,0.5-0.2c0.2,0,0.4,0.1,0.5,0.2c0.1,0.1,0.2,0.3,0.2,0.5
		c0,0.2-0.1,0.4-0.2,0.5c-0.1,0.1-0.3,0.2-0.5,0.2c-0.2,0-0.4-0.1-0.5-0.2C126.1,74.2,126,74,126,73.8z"/>
</g>
<g>
	<path class="st2" d="M138.2,67.5v2.9h1.8c0.2,0,0.3-0.1,0.3-0.2c0.1-0.1,0.1-0.3,0.2-0.5c0-0.1,0.1-0.1,0.2-0.1c0,0,0.1,0,0.1,0
		c0,0,0.1,0,0.1,0c0,0.2,0,0.4,0,0.6s0,0.4,0,0.6c0,0.1,0,0.3,0,0.5s0,0.4,0,0.6c-0.1,0-0.1,0-0.2,0c-0.1,0-0.2,0-0.2-0.1
		c0-0.2-0.1-0.4-0.2-0.5c-0.1-0.1-0.2-0.2-0.3-0.2h-1.8v2.7c0,0.2,0.1,0.3,0.3,0.3c0.2,0.1,0.6,0.1,1,0.1h0.6c0.2,0,0.4,0,0.6-0.1
		c0.2-0.1,0.3-0.2,0.4-0.3s0.2-0.2,0.3-0.4c0.1-0.2,0.2-0.3,0.3-0.5c0-0.1,0.1-0.1,0.2-0.1c0,0,0.1,0,0.1,0c0,0,0.1,0,0.1,0.1
		c-0.1,0.1-0.1,0.3-0.2,0.5c-0.1,0.2-0.1,0.4-0.1,0.6c0,0.2-0.1,0.3-0.1,0.5c-0.1,0.1-0.1,0.2-0.2,0.2c-0.1,0-0.2,0-0.3,0
		c-0.1,0-0.2,0-0.4,0s-0.3,0-0.4,0c-0.1,0-0.3,0-0.4,0h-2.6c-0.2,0-0.5,0-0.7,0c-0.3,0-0.5,0-0.7,0c0-0.1,0-0.1,0-0.2
		c0-0.1,0-0.2,0.1-0.2c0.3-0.1,0.5-0.1,0.6-0.2c0.1-0.1,0.2-0.2,0.2-0.3v-5.8c0-0.2-0.1-0.3-0.2-0.3c-0.1-0.1-0.3-0.1-0.7-0.2
		c-0.1,0-0.1-0.1-0.1-0.2c0,0,0-0.1,0-0.1s0-0.1,0-0.1c0.3,0,0.6,0,0.8,0s0.4,0,0.6,0h2.3c0.4,0,0.7,0,0.9,0c0.3,0,0.4,0,0.5,0
		c0.1,0,0.2,0.1,0.2,0.2c0,0.1,0.1,0.3,0.1,0.4c0,0.2,0.1,0.4,0.1,0.6s0.1,0.4,0.2,0.5c-0.1,0-0.1,0.1-0.2,0.1c-0.1,0-0.2,0-0.2-0.1
		c-0.1-0.2-0.2-0.4-0.3-0.5c-0.1-0.1-0.2-0.3-0.3-0.3c-0.1-0.1-0.3-0.2-0.4-0.2c-0.2,0-0.4-0.1-0.6-0.1H138.2z"/>
	<path class="st2" d="M143.2,73.8c0-0.2,0.1-0.4,0.2-0.5c0.1-0.1,0.3-0.2,0.5-0.2c0.2,0,0.4,0.1,0.5,0.2c0.1,0.1,0.2,0.3,0.2,0.5
		c0,0.2-0.1,0.4-0.2,0.5c-0.1,0.1-0.3,0.2-0.5,0.2c-0.2,0-0.4-0.1-0.5-0.2C143.3,74.2,143.2,74,143.2,73.8z"/>
	<path class="st2" d="M150.8,68.8c-0.1,0-0.1,0-0.2,0c-0.1,0-0.2,0-0.2-0.1c0,0-0.1-0.1-0.1-0.1c-0.2-0.4-0.4-0.7-0.7-0.9
		c-0.3-0.2-0.7-0.3-1.2-0.3c-0.2,0-0.4,0-0.5,0.1c-0.2,0-0.3,0.1-0.4,0.2c-0.1,0.1-0.2,0.2-0.3,0.3s-0.1,0.3-0.1,0.5
		c0,0.4,0.2,0.6,0.5,0.9c0.3,0.2,0.8,0.5,1.4,0.7c0.8,0.3,1.3,0.6,1.7,1c0.4,0.4,0.5,0.8,0.5,1.3c0,0.3,0,0.6-0.1,0.9
		c-0.1,0.3-0.3,0.5-0.5,0.7s-0.5,0.4-0.8,0.5c-0.3,0.1-0.7,0.2-1.2,0.2c-0.5,0-0.9,0-1.3-0.1s-0.7-0.2-1-0.4c0-0.3-0.1-0.6-0.1-0.9
		c0-0.3-0.1-0.6-0.2-0.9c0.1,0,0.1,0,0.2,0c0.1,0,0.2,0,0.2,0.1c0.1,0,0.1,0.1,0.1,0.2c0.2,0.5,0.4,0.9,0.8,1.2
		c0.3,0.3,0.7,0.4,1.3,0.4c0.3,0,0.5,0,0.7-0.1c0.2-0.1,0.3-0.2,0.5-0.3c0.1-0.1,0.2-0.3,0.3-0.4c0.1-0.2,0.1-0.3,0.1-0.5
		c0-0.4-0.1-0.7-0.4-0.9c-0.3-0.2-0.7-0.4-1.2-0.6c-0.3-0.1-0.6-0.2-0.9-0.4c-0.3-0.1-0.5-0.3-0.7-0.5c-0.2-0.2-0.3-0.4-0.5-0.6
		c-0.1-0.2-0.2-0.5-0.2-0.8c0-0.3,0.1-0.5,0.2-0.8c0.1-0.2,0.3-0.5,0.5-0.6c0.2-0.2,0.4-0.3,0.7-0.4c0.3-0.1,0.6-0.2,1-0.2
		c0.4,0,0.7,0,1.1,0.1c0.3,0.1,0.7,0.2,1.1,0.3c0,0.2,0,0.5,0.1,0.7S150.7,68.6,150.8,68.8z"/>
	<path class="st2" d="M152.2,73.8c0-0.2,0.1-0.4,0.2-0.5c0.1-0.1,0.3-0.2,0.5-0.2c0.2,0,0.4,0.1,0.5,0.2c0.1,0.1,0.2,0.3,0.2,0.5
		c0,0.2-0.1,0.4-0.2,0.5c-0.1,0.1-0.3,0.2-0.5,0.2c-0.2,0-0.4-0.1-0.5-0.2C152.3,74.2,152.2,74,152.2,73.8z"/>
	<path class="st2" d="M156.8,71.2v2.3c0,0.2,0.1,0.3,0.3,0.4c0.2,0.1,0.4,0.1,0.8,0.2c0.1,0,0.1,0.1,0.1,0.2c0,0.1,0,0.1,0,0.2
		c-0.2,0-0.5,0-0.8,0c-0.3,0-0.6,0-0.9,0c-0.2,0-0.4,0-0.7,0c-0.3,0-0.5,0-0.7,0c0-0.1,0-0.1,0-0.2c0-0.1,0-0.2,0.1-0.2
		c0.3-0.1,0.5-0.1,0.6-0.2s0.2-0.2,0.2-0.3v-5.8c0-0.2-0.1-0.3-0.2-0.3s-0.3-0.1-0.7-0.2c-0.1,0-0.1-0.1-0.1-0.2c0-0.1,0-0.1,0-0.2
		c0.2,0,0.5,0,0.7,0c0.2,0,0.5,0,0.7,0h1.7c0.8,0,1.5,0.2,1.9,0.6s0.6,0.9,0.6,1.5c0,0.2-0.1,0.5-0.2,0.7c-0.1,0.2-0.3,0.5-0.5,0.7
		c-0.2,0.2-0.5,0.4-0.8,0.5c-0.3,0.1-0.7,0.2-1.1,0.2H156.8z M157.5,70.8c0.5,0,1-0.1,1.3-0.4c0.3-0.2,0.4-0.6,0.4-1.2
		c0-0.2,0-0.5-0.1-0.7c-0.1-0.2-0.1-0.4-0.3-0.5s-0.3-0.3-0.5-0.4c-0.2-0.1-0.5-0.1-0.8-0.1h-0.6v3.2H157.5z"/>
</g>
<polygon class="st1" points="46.9,84.6 45.5,84.4 45.2,85.6 46.7,86 47.3,85.3 "/>
<polygon class="st1" points="26,77.9 27.1,78.5 27.7,80 25.1,79.4 "/>
<polygon class="st1" points="94.9,24 96.2,26.4 98.2,26.3 96.8,24.7 "/>
</svg>
